<svg xmlns="http://www.w3.org/2000/svg" width="12" height="12" viewBox="0 0 12 12" fill="none"><path d="M4.47833 7.71641L5.63709 10.2169C5.78033 10.5259 6.21971 10.5259 6.36294 10.2168L7.52167 7.71641C7.56149 7.63049 7.63049 7.56148 7.71641 7.52167L10.2168 6.36294C10.5259 6.21971 10.5259 5.78033 10.2169 5.6371L7.71641 4.47833C7.63049 4.43852 7.56149 4.36951 7.52167 4.28359L6.36294 1.78315C6.21971 1.47406 5.78033 1.47406 5.63709 1.78315L4.47833 4.28359C4.43852 4.36951 4.36951 4.43852 4.28359 4.47833L1.78315 5.63709C1.47406 5.78033 1.47406 6.21971 1.78315 6.36294L4.28359 7.52167C4.36951 7.56148 4.43852 7.63049 4.47833 7.71641Z" fill="#4058FF"/></svg>