<svg xmlns="http://www.w3.org/2000/svg" width="20" height="20" viewBox="0 0 20 20" fill="none"><path d="M10.0044 10C9.79313 10 9.61458 9.92812 9.46875 9.78438C9.32292 9.64062 9.25 9.4625 9.25 9.25V2.75C9.25 2.5375 9.32145 2.35937 9.46435 2.21562C9.60727 2.07187 9.78435 2 9.9956 2C10.2069 2 10.3854 2.07187 10.5312 2.21562C10.6771 2.35937 10.75 2.5375 10.75 2.75V9.25C10.75 9.4625 10.6785 9.64062 10.5356 9.78438C10.3927 9.92812 10.2156 10 10.0044 10ZM10 17C9.02778 17 8.11713 16.8153 7.26806 16.4458C6.41898 16.0764 5.68009 15.5773 5.0514 14.9486C4.42269 14.3199 3.92361 13.581 3.55417 12.7319C3.18472 11.8829 3 10.9722 3 10C3 9.18647 3.13889 8.39629 3.41667 7.62944C3.69444 6.86259 4.09028 6.16667 4.60417 5.54167C4.74306 5.36111 4.91667 5.26042 5.125 5.23958C5.33333 5.21875 5.51389 5.28472 5.66667 5.4375C5.80556 5.59028 5.88194 5.76736 5.89583 5.96875C5.90972 6.17014 5.86111 6.34722 5.75 6.5C5.3409 7 5.0303 7.54861 4.81819 8.14583C4.60606 8.74306 4.5 9.36111 4.5 10C4.5 11.5321 5.03318 12.8318 6.09954 13.8991C7.16592 14.9664 8.46453 15.5 9.99538 15.5C11.5262 15.5 12.8264 14.9664 13.8958 13.8991C14.9653 12.8318 15.5 11.5321 15.5 10C15.5 9.34722 15.3889 8.72569 15.1667 8.13542C14.9444 7.54514 14.6319 6.99306 14.2292 6.47917C14.1042 6.32639 14.0486 6.14931 14.0625 5.94792C14.0764 5.74653 14.1597 5.56944 14.3125 5.41667C14.4514 5.26389 14.625 5.20139 14.8333 5.22917C15.0417 5.25694 15.2207 5.35667 15.3704 5.52835C15.9013 6.16223 16.3056 6.86111 16.5833 7.625C16.8611 8.38889 17 9.18056 17 10C17 10.9722 16.8153 11.8829 16.4458 12.7319C16.0764 13.581 15.5773 14.3199 14.9486 14.9486C14.3199 15.5773 13.581 16.0764 12.7319 16.4458C11.8829 16.8153 10.9722 17 10 17Z" fill="#9AA7B3"/></svg>